<?xml version="1.0" encoding="UTF-8" standalone="no"?>
<!-- Created with Inkscape (http://www.inkscape.org/) -->

<svg
   xmlns:dc="http://purl.org/dc/elements/1.1/"
   xmlns:cc="http://creativecommons.org/ns#"
   xmlns:rdf="http://www.w3.org/1999/02/22-rdf-syntax-ns#"
   xmlns:svg="http://www.w3.org/2000/svg"
   xmlns="http://www.w3.org/2000/svg"
   xmlns:sodipodi="http://sodipodi.sourceforge.net/DTD/sodipodi-0.dtd"
   xmlns:inkscape="http://www.inkscape.org/namespaces/inkscape"
   width="256"
   height="128"
   viewBox="0 0 67.733332 33.866668"
   version="1.1"
   id="svg8"
   inkscape:version="0.92.5 (2060ec1f9f, 2020-04-08)"
   sodipodi:docname="tex1_32x16_9072ee31f56ffcba_8c2b29f8b32aaa32_8.svg">
  <defs
     id="defs2">
    <clipPath
       clipPathUnits="userSpaceOnUse"
       id="clipPath1141">
      <rect
         style="opacity:0.5979996;fill:#ffffff;fill-opacity:1;stroke:#212121;stroke-width:1.5;stroke-linecap:round;stroke-linejoin:miter;stroke-miterlimit:4;stroke-dasharray:none;stroke-opacity:1;paint-order:stroke fill markers"
         id="rect1143"
         width="67.73333"
         height="33.866665"
         x="0"
         y="263.13333" />
    </clipPath>
    <clipPath
       clipPathUnits="userSpaceOnUse"
       id="clipPath1145">
      <rect
         style="opacity:0.5979996;fill:#ffffff;fill-opacity:1;stroke:#212121;stroke-width:1.5;stroke-linecap:round;stroke-linejoin:miter;stroke-miterlimit:4;stroke-dasharray:none;stroke-opacity:1;paint-order:stroke fill markers"
         id="rect1147"
         width="67.73333"
         height="33.866665"
         x="0"
         y="263.13333" />
    </clipPath>
    <clipPath
       clipPathUnits="userSpaceOnUse"
       id="clipPath1149">
      <rect
         style="opacity:0.5979996;fill:#ffffff;fill-opacity:1;stroke:#212121;stroke-width:1.5;stroke-linecap:round;stroke-linejoin:miter;stroke-miterlimit:4;stroke-dasharray:none;stroke-opacity:1;paint-order:stroke fill markers"
         id="rect1151"
         width="67.73333"
         height="33.866665"
         x="0"
         y="263.13333" />
    </clipPath>
    <clipPath
       clipPathUnits="userSpaceOnUse"
       id="clipPath1153">
      <rect
         style="opacity:0.5979996;fill:#ffffff;fill-opacity:1;stroke:#212121;stroke-width:1.5;stroke-linecap:round;stroke-linejoin:miter;stroke-miterlimit:4;stroke-dasharray:none;stroke-opacity:1;paint-order:stroke fill markers"
         id="rect1155"
         width="67.73333"
         height="33.866665"
         x="0"
         y="263.13333" />
    </clipPath>
    <clipPath
       clipPathUnits="userSpaceOnUse"
       id="clipPath1157">
      <rect
         style="opacity:0.5979996;fill:#ffffff;fill-opacity:1;stroke:#212121;stroke-width:1.5;stroke-linecap:round;stroke-linejoin:miter;stroke-miterlimit:4;stroke-dasharray:none;stroke-opacity:1;paint-order:stroke fill markers"
         id="rect1159"
         width="67.73333"
         height="33.866665"
         x="0"
         y="263.13333" />
    </clipPath>
    <clipPath
       clipPathUnits="userSpaceOnUse"
       id="clipPath1161">
      <rect
         style="opacity:0.5979996;fill:#ffffff;fill-opacity:1;stroke:#212121;stroke-width:1.5;stroke-linecap:round;stroke-linejoin:miter;stroke-miterlimit:4;stroke-dasharray:none;stroke-opacity:1;paint-order:stroke fill markers"
         id="rect1163"
         width="67.73333"
         height="33.866665"
         x="0"
         y="263.13333" />
    </clipPath>
  </defs>
  <sodipodi:namedview
     id="base"
     pagecolor="#ffffff"
     bordercolor="#000000"
     borderopacity="1"
     inkscape:pageopacity="0.0"
     inkscape:pageshadow="2"
     inkscape:zoom="35.090174"
     inkscape:cx="130.20361"
     inkscape:cy="12.354464"
     inkscape:document-units="mm"
     inkscape:current-layer="g1053"
     showgrid="false"
     units="px"
     inkscape:pagecheckerboard="true"
     showborder="true"
     inkscape:showpageshadow="false"
     inkscape:window-width="960"
     inkscape:window-height="1052"
     inkscape:window-x="960"
     inkscape:window-y="1080"
     inkscape:window-maximized="0"
     showguides="true"
     inkscape:guide-bbox="true">
    <sodipodi:guide
       position="0,27.376699"
       orientation="1,0"
       id="guide845"
       inkscape:locked="false" />
    <sodipodi:guide
       position="67.733332,7.0569339"
       orientation="1,0"
       id="guide847"
       inkscape:locked="false" />
    <sodipodi:guide
       position="48.534504,0"
       orientation="0,1"
       id="guide851"
       inkscape:locked="false" />
    <sodipodi:guide
       position="-4.4648438,19.066537"
       orientation="0,1"
       id="guide869"
       inkscape:locked="false" />
    <sodipodi:guide
       position="0,33.866667"
       orientation="0,1"
       id="guide895"
       inkscape:locked="false" />
    <sodipodi:guide
       position="27.516666,13.502019"
       orientation="1,0"
       id="guide1105"
       inkscape:locked="false" />
    <sodipodi:guide
       position="27.516665,12.7"
       orientation="0,1"
       id="guide1107"
       inkscape:locked="false" />
    <sodipodi:guide
       position="19.041731,18.289324"
       orientation="1,0"
       id="guide1111"
       inkscape:locked="false" />
  </sodipodi:namedview>
  <metadata
     id="metadata5">
    <rdf:RDF>
      <cc:Work
         rdf:about="">
        <dc:format>image/svg+xml</dc:format>
        <dc:type
           rdf:resource="http://purl.org/dc/dcmitype/StillImage" />
        <dc:title />
      </cc:Work>
    </rdf:RDF>
  </metadata>
  <g
     inkscape:label="Layer 1"
     inkscape:groupmode="layer"
     id="layer1"
     transform="translate(0,-263.13332)"
     style="display:inline">
    <rect
       style="display:inline;opacity:1;fill:#fff794;fill-opacity:1;stroke:none;stroke-width:1.70978212;stroke-linecap:round;stroke-linejoin:miter;stroke-miterlimit:4;stroke-dasharray:none;stroke-opacity:1;paint-order:stroke fill markers"
       id="rect1100"
       width="85.686615"
       height="33.114693"
       x="-12.347852"
       y="268.00125"
       inkscape:label="skin"
       clip-path="url(#clipPath1161)"
       sodipodi:insensitive="true" />
    <g
       id="g1024"
       inkscape:label="hair"
       style="display:inline"
       clip-path="url(#clipPath1157)"
       sodipodi:insensitive="true">
      <path
         sodipodi:nodetypes="sssss"
         inkscape:connector-curvature="0"
         id="path866"
         d="m 7.9517527,262.10241 c 0,3.50757 -4.355102,15.83108 -7.88110993,15.83108 -3.52600807,0 -8.06819807,-12.37597 -8.06819807,-15.83108 0,-4.03073 4.54219,1.23454 8.06819807,1.23454 3.52600793,0 7.88110993,-5.26527 7.88110993,-1.23454 z"
         style="opacity:1;fill:#10395a;fill-opacity:1;stroke:none;stroke-width:1.60000002;stroke-linecap:round;stroke-linejoin:miter;stroke-miterlimit:4;stroke-dasharray:none;stroke-opacity:1;paint-order:stroke fill markers" />
      <path
         style="opacity:1;fill:#10395a;fill-opacity:1;stroke:none;stroke-width:1.60000002;stroke-linecap:round;stroke-linejoin:miter;stroke-miterlimit:4;stroke-dasharray:none;stroke-opacity:1;paint-order:stroke fill markers"
         d="m 17.446503,262.10241 c 0,3.50757 -4.355102,15.83108 -7.8811103,15.83108 -3.5260081,0 -8.0681981,-12.37597 -8.0681981,-15.83108 0,-4.03073 4.54219,1.23454 8.0681981,1.23454 3.5260083,0 7.8811103,-5.26527 7.8811103,-1.23454 z"
         id="path1001"
         inkscape:connector-curvature="0"
         sodipodi:nodetypes="sssss" />
      <path
         sodipodi:nodetypes="sssss"
         inkscape:connector-curvature="0"
         id="path1003"
         d="m 26.93843,262.10241 c 0,3.50757 -4.355102,15.83108 -7.88111,15.83108 -3.526008,0 -8.068198,-12.37597 -8.068198,-15.83108 0,-4.03073 4.54219,1.23454 8.068198,1.23454 3.526008,0 7.88111,-5.26527 7.88111,-1.23454 z"
         style="opacity:1;fill:#10395a;fill-opacity:1;stroke:none;stroke-width:1.60000002;stroke-linecap:round;stroke-linejoin:miter;stroke-miterlimit:4;stroke-dasharray:none;stroke-opacity:1;paint-order:stroke fill markers" />
      <path
         style="opacity:1;fill:#10395a;fill-opacity:1;stroke:none;stroke-width:1.60000002;stroke-linecap:round;stroke-linejoin:miter;stroke-miterlimit:4;stroke-dasharray:none;stroke-opacity:1;paint-order:stroke fill markers"
         d="m 36.430357,262.10241 c 0,3.50757 -4.355102,15.83108 -7.88111,15.83108 -3.526008,0 -8.068198,-12.37597 -8.068198,-15.83108 0,-4.03073 4.54219,1.23454 8.068198,1.23454 3.526008,0 7.88111,-5.26527 7.88111,-1.23454 z"
         id="path1005"
         inkscape:connector-curvature="0"
         sodipodi:nodetypes="sssss" />
      <path
         sodipodi:nodetypes="sssss"
         inkscape:connector-curvature="0"
         id="path1007"
         d="m 47.047639,262.10241 c 0,3.50757 -4.355102,15.83108 -7.88111,15.83108 -3.526008,0 -8.068198,-12.37597 -8.068198,-15.83108 0,-4.03073 4.54219,1.23454 8.068198,1.23454 3.526008,0 7.88111,-5.26527 7.88111,-1.23454 z"
         style="opacity:1;fill:#10395a;fill-opacity:1;stroke:none;stroke-width:1.60000002;stroke-linecap:round;stroke-linejoin:miter;stroke-miterlimit:4;stroke-dasharray:none;stroke-opacity:1;paint-order:stroke fill markers" />
      <rect
         y="258.74036"
         x="-5.2384825"
         height="10.570509"
         width="76.332176"
         id="rect864"
         style="opacity:1;fill:#10395a;fill-opacity:1;stroke:none;stroke-width:1.56573486;stroke-linecap:round;stroke-linejoin:miter;stroke-miterlimit:4;stroke-dasharray:none;stroke-opacity:1;paint-order:stroke fill markers" />
      <path
         style="opacity:1;fill:#10395a;fill-opacity:1;stroke:none;stroke-width:1.60000002;stroke-linecap:round;stroke-linejoin:miter;stroke-miterlimit:4;stroke-dasharray:none;stroke-opacity:1;paint-order:stroke fill markers"
         d="m 56.542389,262.10241 c 0,3.50757 -4.355102,15.83108 -7.88111,15.83108 -3.526008,0 -8.068198,-12.37597 -8.068198,-15.83108 0,-4.03073 4.54219,1.23454 8.068198,1.23454 3.526008,0 7.88111,-5.26527 7.88111,-1.23454 z"
         id="path1009"
         inkscape:connector-curvature="0"
         sodipodi:nodetypes="sssss" />
      <path
         sodipodi:nodetypes="sssss"
         inkscape:connector-curvature="0"
         id="path1011"
         d="m 66.037139,262.10241 c 0,3.50757 -4.355102,15.83108 -7.88111,15.83108 -3.526008,0 -8.068198,-12.37597 -8.068198,-15.83108 0,-4.03073 4.54219,1.23454 8.068198,1.23454 3.526008,0 7.88111,-5.26527 7.88111,-1.23454 z"
         style="opacity:1;fill:#10395a;fill-opacity:1;stroke:none;stroke-width:1.60000002;stroke-linecap:round;stroke-linejoin:miter;stroke-miterlimit:4;stroke-dasharray:none;stroke-opacity:1;paint-order:stroke fill markers" />
      <path
         style="opacity:1;fill:#10395a;fill-opacity:1;stroke:none;stroke-width:1.60000002;stroke-linecap:round;stroke-linejoin:miter;stroke-miterlimit:4;stroke-dasharray:none;stroke-opacity:1;paint-order:stroke fill markers"
         d="m 75.531889,262.10241 c 0,3.50757 -4.355102,15.83108 -7.88111,15.83108 -3.526008,0 -8.068198,-12.37597 -8.068198,-15.83108 0,-4.03073 4.54219,1.23454 8.068198,1.23454 3.526008,0 7.88111,-5.26527 7.88111,-1.23454 z"
         id="path1013"
         inkscape:connector-curvature="0"
         sodipodi:nodetypes="sssss" />
    </g>
    <g
       id="g1053"
       inkscape:label="nose"
       style="display:inline"
       clip-path="url(#clipPath1153)"
       sodipodi:insensitive="true">
      <rect
         style="opacity:1;fill:#cece8c;fill-opacity:1;stroke:none;stroke-width:1.17819297;stroke-linecap:round;stroke-linejoin:miter;stroke-miterlimit:4;stroke-dasharray:none;stroke-opacity:1;paint-order:stroke fill markers"
         id="rect1055"
         width="2.118"
         height="8.2442236"
         x="32.805"
         y="289.51645"
         inkscape:label="rect1055" />
      <path
         inkscape:label="nose"
         sodipodi:nodetypes="sssss"
         inkscape:connector-curvature="0"
         id="path1026"
         d="m 38.091734,287.39403 c 0,1.16723 -1.894336,3.24768 -4.231119,3.24768 -2.336783,0 -4.231119,-1.99777 -4.231119,-3.165 0,-1.16722 1.894336,-1.0619 4.231119,-1.0619 2.336783,0 4.231119,-0.188 4.231119,0.97922 z"
         style="display:inline;opacity:1;fill:#212121;fill-opacity:1;stroke:none;stroke-width:1.60464609;stroke-linecap:round;stroke-linejoin:miter;stroke-miterlimit:4;stroke-dasharray:none;stroke-opacity:1;paint-order:stroke fill markers" />
      <path
         inkscape:label="shine"
         sodipodi:nodetypes="cssccc"
         inkscape:connector-curvature="0"
         id="path1045"
         d="m 32.249942,287.06619 c -0.701868,7e-4 -1.270509,0.23768 -1.269409,0.52823 0.0011,0.29055 0.570849,0.52573 1.272714,0.5255 0.701864,-2.3e-4 1.271055,-0.23631 1.269916,-0.52757 -0.0011,-0.29125 -0.571354,-0.5269 -1.273221,-0.5262 z"
         style="fill:#ffffff;fill-opacity:1;fill-rule:evenodd;stroke-width:0.20373873" />
    </g>
    <g
       id="g1096"
       inkscape:label="spots"
       style="display:inline"
       clip-path="url(#clipPath1149)"
       sodipodi:insensitive="true">
      <path
         inkscape:label="spot"
         sodipodi:nodetypes="scscs"
         inkscape:connector-curvature="0"
         id="path1061"
         d="m 15.875855,288.53331 c -0.584171,4.7e-4 -1.058247,-0.47246 -1.059187,-1.05663 -9.38e-4,-0.58416 0.471607,-1.05861 1.055769,-1.06003 0.584165,-10e-4 1.059004,0.47075 1.05995,1.05662 9.46e-4,0.58588 -0.472365,1.05957 -1.056532,1.06004 z"
         style="fill:#848c6b;fill-opacity:1;fill-rule:evenodd;stroke-width:0.26265872" />
      <path
         style="fill:#848c6b;fill-opacity:1;fill-rule:evenodd;stroke-width:0.26265872"
         d="m 20.108736,288.53331 c -0.584171,4.7e-4 -1.058247,-0.47246 -1.059187,-1.05663 -9.38e-4,-0.58416 0.471607,-1.05861 1.055769,-1.06003 0.584165,-10e-4 1.059004,0.47075 1.05995,1.05662 9.46e-4,0.58588 -0.472365,1.05957 -1.056532,1.06004 z"
         id="path1068"
         inkscape:connector-curvature="0"
         sodipodi:nodetypes="scscs"
         inkscape:label="spot" />
      <path
         inkscape:label="spot"
         sodipodi:nodetypes="scscs"
         inkscape:connector-curvature="0"
         id="path1070"
         d="m 24.338694,288.53331 c -0.584171,4.7e-4 -1.058247,-0.47246 -1.059187,-1.05663 -9.38e-4,-0.58416 0.471607,-1.05861 1.055769,-1.06003 0.584165,-10e-4 1.059004,0.47075 1.05995,1.05662 9.46e-4,0.58588 -0.472365,1.05957 -1.056532,1.06004 z"
         style="fill:#848c6b;fill-opacity:1;fill-rule:evenodd;stroke-width:0.26265872" />
      <path
         style="fill:#848c6b;fill-opacity:1;fill-rule:evenodd;stroke-width:0.26265872"
         d="m 22.226266,292.76664 c -0.584171,4.7e-4 -1.058247,-0.47246 -1.059187,-1.05663 -9.38e-4,-0.58416 0.471607,-1.05861 1.055769,-1.06003 0.584165,-0.001 1.059004,0.47075 1.05995,1.05662 9.46e-4,0.58588 -0.472365,1.05957 -1.056532,1.06004 z"
         id="path1072"
         inkscape:connector-curvature="0"
         sodipodi:nodetypes="scscs"
         inkscape:label="spot" />
      <path
         inkscape:label="spot"
         sodipodi:nodetypes="scscs"
         inkscape:connector-curvature="0"
         id="path1074"
         d="m 17.99302,292.76664 c -0.584171,4.7e-4 -1.058247,-0.47246 -1.059187,-1.05663 -9.38e-4,-0.58416 0.471607,-1.05861 1.055769,-1.06003 0.584165,-0.001 1.059004,0.47075 1.05995,1.05662 9.46e-4,0.58588 -0.472365,1.05957 -1.056532,1.06004 z"
         style="fill:#848c6b;fill-opacity:1;fill-rule:evenodd;stroke-width:0.26265872" />
      <path
         style="fill:#848c6b;fill-opacity:1;fill-rule:evenodd;stroke-width:0.26265872"
         d="m 43.393211,288.53331 c -0.584171,4.7e-4 -1.058247,-0.47246 -1.059187,-1.05663 -9.38e-4,-0.58416 0.471607,-1.05861 1.055769,-1.06003 0.584165,-10e-4 1.059004,0.47075 1.05995,1.05662 9.46e-4,0.58588 -0.472365,1.05957 -1.056532,1.06004 z"
         id="path1076"
         inkscape:connector-curvature="0"
         sodipodi:nodetypes="scscs"
         inkscape:label="spot" />
      <path
         inkscape:label="spot"
         sodipodi:nodetypes="scscs"
         inkscape:connector-curvature="0"
         id="path1078"
         d="m 47.626092,288.53331 c -0.584171,4.7e-4 -1.058247,-0.47246 -1.059187,-1.05663 -9.38e-4,-0.58416 0.471607,-1.05861 1.055769,-1.06003 0.584165,-10e-4 1.059004,0.47075 1.05995,1.05662 9.46e-4,0.58588 -0.472365,1.05957 -1.056532,1.06004 z"
         style="fill:#848c6b;fill-opacity:1;fill-rule:evenodd;stroke-width:0.26265872" />
      <path
         style="fill:#848c6b;fill-opacity:1;fill-rule:evenodd;stroke-width:0.26265872"
         d="m 51.85605,288.53331 c -0.584171,4.7e-4 -1.058247,-0.47246 -1.059187,-1.05663 -9.38e-4,-0.58416 0.471607,-1.05861 1.055769,-1.06003 0.584165,-10e-4 1.059004,0.47075 1.05995,1.05662 9.46e-4,0.58588 -0.472365,1.05957 -1.056532,1.06004 z"
         id="path1080"
         inkscape:connector-curvature="0"
         sodipodi:nodetypes="scscs"
         inkscape:label="spot" />
      <path
         inkscape:label="spot"
         sodipodi:nodetypes="scscs"
         inkscape:connector-curvature="0"
         id="path1082"
         d="m 49.743622,292.76664 c -0.584171,4.7e-4 -1.058247,-0.47246 -1.059187,-1.05663 -9.38e-4,-0.58416 0.471607,-1.05861 1.055769,-1.06003 0.584165,-0.001 1.059004,0.47075 1.05995,1.05662 9.46e-4,0.58588 -0.472365,1.05957 -1.056532,1.06004 z"
         style="fill:#848c6b;fill-opacity:1;fill-rule:evenodd;stroke-width:0.26265872" />
      <path
         style="fill:#848c6b;fill-opacity:1;fill-rule:evenodd;stroke-width:0.26265872"
         d="m 45.510376,292.76664 c -0.584171,4.7e-4 -1.058247,-0.47246 -1.059187,-1.05663 -9.38e-4,-0.58416 0.471607,-1.05861 1.055769,-1.06003 0.584165,-0.001 1.059004,0.47075 1.05995,1.05662 9.46e-4,0.58588 -0.472365,1.05957 -1.056532,1.06004 z"
         id="path1084"
         inkscape:connector-curvature="0"
         sodipodi:nodetypes="scscs"
         inkscape:label="spot" />
    </g>
    <g
       id="g1300"
       inkscape:label="eyes">
      <path
         sodipodi:nodetypes="csc"
         inkscape:connector-curvature="0"
         id="path1195"
         d="m 20.036784,281.74554 c 0,2.08817 6.493,2.08607 6.493,0 0,-0.92443 -6.493,-0.92616 -6.493,0 z"
         style="fill:#212121;fill-opacity:1;stroke:#212121;stroke-width:1.97182739;stroke-linecap:round;stroke-linejoin:miter;stroke-miterlimit:4;stroke-dasharray:none;stroke-opacity:1" />
      <path
         style="fill:#212121;fill-opacity:1;stroke:#212121;stroke-width:1.97182739;stroke-linecap:round;stroke-linejoin:miter;stroke-miterlimit:4;stroke-dasharray:none;stroke-opacity:1"
         d="m 41.20996,281.74554 c 0,2.08817 6.493,2.08607 6.493,0 0,-0.92443 -6.493,-0.92616 -6.493,0 z"
         id="path1296"
         inkscape:connector-curvature="0"
         sodipodi:nodetypes="csc" />
    </g>
  </g>
</svg>
