<?xml version="1.0" encoding="UTF-8" standalone="no"?>
<svg
   xmlns:dc="http://purl.org/dc/elements/1.1/"
   xmlns:cc="http://creativecommons.org/ns#"
   xmlns:rdf="http://www.w3.org/1999/02/22-rdf-syntax-ns#"
   xmlns:svg="http://www.w3.org/2000/svg"
   xmlns="http://www.w3.org/2000/svg"
   xmlns:sodipodi="http://sodipodi.sourceforge.net/DTD/sodipodi-0.dtd"
   xmlns:inkscape="http://www.inkscape.org/namespaces/inkscape"
   width="256"
   height="128"
   viewBox="0 0 67.733332 33.866668"
   version="1.1"
   id="svg8"
   inkscape:version="1.0.1 (3bc2e81, 2020-09-07)"
   sodipodi:docname="tex1_32x16_03e24d242575897c_b1acce71fc0c8bbe_8.svg"
   
   inkscape:export-xdpi="96"
   inkscape:export-ydpi="96">
  <defs
     id="defs2">
    <clipPath
       clipPathUnits="userSpaceOnUse"
       id="clipPath1056">
      <rect
         style="fill:#ffffff;fill-opacity:1;stroke:none;stroke-width:2.08518;stroke-linecap:round;stroke-opacity:1;paint-order:stroke fill markers"
         id="rect1058"
         width="67.729233"
         height="67.729164"
         x="-67.729233"
         y="0.0041749999"
         transform="scale(-1,1)" />
    </clipPath>
    <clipPath
       clipPathUnits="userSpaceOnUse"
       id="clipPath1642">
      <rect
         style="fill:#e70000;fill-opacity:1;stroke:#000000;stroke-width:2.08518;stroke-linecap:round;stroke-opacity:0;paint-order:stroke fill markers"
         id="rect1644"
         width="67.729233"
         height="67.729233"
         x="0"
         y="0.0041749999" />
    </clipPath>
  </defs>
  <sodipodi:namedview
     id="base"
     pagecolor="#ffffff"
     bordercolor="#000000"
     borderopacity="1"
     inkscape:pageopacity="0.0"
     inkscape:pageshadow="2"
     inkscape:zoom="2"
     inkscape:cx="-33.803842"
     inkscape:cy="-154.06715"
     inkscape:document-units="mm"
     inkscape:current-layer="svg8"
     inkscape:document-rotation="0"
     showgrid="false"
     units="px"
     inkscape:pagecheckerboard="true"
     inkscape:showpageshadow="false"
     showguides="true"
     inkscape:guide-bbox="true"
     inkscape:window-width="1920"
     inkscape:window-height="1021"
     inkscape:window-x="0"
     inkscape:window-y="0"
     inkscape:window-maximized="1">
    <sodipodi:guide
       position="0,0.033072559"
       orientation="1,0"
       id="guide894" />
    <sodipodi:guide
       position="-0.04033177,-0.00047936573"
       orientation="0,-1"
       id="guide896" />
    <sodipodi:guide
       position="67.841753,33.865193"
       orientation="0,-1"
       id="guide912" />
    <sodipodi:guide
       position="67.734128,33.855791"
       orientation="1,0"
       id="guide914" />
  </sodipodi:namedview>
  <metadata
     id="metadata5">
    <rdf:RDF>
      <cc:Work
         rdf:about="">
        <dc:format>image/svg+xml</dc:format>
        <dc:type
           rdf:resource="http://purl.org/dc/dcmitype/StillImage" />
        <dc:title />
      </cc:Work>
    </rdf:RDF>
  </metadata>
  <g
     id="layer2"
     inkscape:label="base"
     style="display:inline"
     clip-path="url(#clipPath1642)"
     transform="translate(0,-33.86626)">
    <rect
       style="display:inline;fill:#adb563;fill-opacity:1;stroke-width:2.085;stroke-linecap:round;stroke-miterlimit:4;stroke-dasharray:none;paint-order:stroke fill markers"
       id="rect888"
       width="67.729233"
       height="67.729233"
       x="0"
       y="0.0041749999"
       inkscape:label="skin" />
    <g
       id="g902"
       inkscape:label="ear"
       style="display:inline">
      <path
         style="fill:#ffa500;fill-opacity:1;stroke:#e7bd42;stroke-width:1.565;stroke-linecap:butt;stroke-linejoin:bevel;stroke-miterlimit:4;stroke-dasharray:none;stroke-opacity:1"
         d="M 18.467184,3.1477224 5.3861796,3.2361398 C 5.7181193,6.8714048 5.1463362,10.582598 5.8360135,14.178223 L 20.861721,3.5080599 20.623149,3.4559905 Z"
         id="path894"
         sodipodi:nodetypes="cccccc"
         inkscape:label="earyellow" />
      <path
         style="display:inline;fill:none;stroke:#000000;stroke-width:1.965;stroke-linecap:butt;stroke-linejoin:miter;stroke-miterlimit:5;stroke-dasharray:none;stroke-opacity:1"
         d="M 5.3604916,14.814099 V 3.1646908 H 21.317638"
         id="path898"
         sodipodi:nodetypes="ccc" />
    </g>
    <g
       id="g908"
       inkscape:label="ear"
       style="display:inline"
       transform="matrix(-1,0,0,1,69.9187,-0.02355148)">
      <path
         style="fill:#ffa500;fill-opacity:1;stroke:#e7bd42;stroke-width:1.565;stroke-linecap:butt;stroke-linejoin:bevel;stroke-miterlimit:4;stroke-dasharray:none;stroke-opacity:1"
         d="M 18.467184,3.1477224 5.3861796,3.2361398 C 5.7181193,6.8714048 5.1463362,10.582598 5.8360135,14.178223 L 20.861721,3.5080599 20.623149,3.4559905 Z"
         id="path904"
         sodipodi:nodetypes="cccccc"
         inkscape:label="earyellow" />
      <path
         style="display:inline;fill:none;stroke:#000000;stroke-width:1.965;stroke-linecap:butt;stroke-linejoin:miter;stroke-miterlimit:5;stroke-dasharray:none;stroke-opacity:1"
         d="M 5.3604916,14.773801 V 3.1243933 H 21.317638"
         id="path906"
         sodipodi:nodetypes="ccc" />
    </g>
    <g
       id="g942"
       inkscape:label="color">
      <path
         style="display:inline;fill:#000000;fill-opacity:0;stroke:#848400;stroke-width:2.12;stroke-linecap:round;stroke-linejoin:round;stroke-miterlimit:4;stroke-dasharray:none;stroke-opacity:1"
         d="m 6.8067471,21.583388 c 0.818095,0 14.4267659,-6.205448 19.9520339,-12.0753493 1.070587,-2.2883717 1.20369,-2.7776486 1.20369,-8.6625439 l 6.187352,-6e-7 2.435071,35.5486798 h -8.443828 c -3.321359,0 -13.093548,8.972306 -16.969716,12.810986 -2.4961246,2.443451 -8.6984519,6.134914 -12.1324863,6.124048 l -5.1469609,0.01499 0.040404,-33.760812 c 4.2404884,-0.02988 7.0855186,0 12.8744359,0 z"
         id="path864"
         sodipodi:nodetypes="cccccccccccc" />
      <path
         style="display:inline;fill:#000000;fill-opacity:0;stroke:#ffffff;stroke-width:2.12;stroke-linecap:round;stroke-linejoin:round;stroke-miterlimit:4;stroke-dasharray:none;stroke-opacity:1"
         d="m 6.5070536,20.114866 c 0.818095,0 14.4267654,-6.205448 19.9520334,-12.0753495 1.070587,-2.2883717 1.20369,-2.7776486 1.20369,-8.66254388 l 6.187352,-6.8e-7 0.05243,1.89031676 0.933609,33.6583633 H 27.84137 c -3.321359,0 -13.093549,8.972306 -16.969717,12.810986 -2.4961241,2.443451 -8.6984514,6.134914 -12.1324858,6.124048 l -5.1469609,0.01499 0.040404,-33.760812 c 4.2404884,-0.02988 7.08551859,0 12.8744359,0 z"
         id="path926"
         sodipodi:nodetypes="ccccccccccccc" />
      <path
         style="display:inline;fill:#0031f7;fill-opacity:1;stroke:#000000;stroke-width:2.03193;stroke-linecap:round;stroke-linejoin:round;stroke-miterlimit:4;stroke-dasharray:none;stroke-opacity:0"
         d="m 6.8067454,20.385368 c 0.7841094,0 14.6820106,-6.676563 19.9777456,-12.3026147 0.996781,-1.7264754 0.643337,-4.5191815 0.643337,-15.4788255 l 6.440001,3.9973732 -0.0177,37.979577 h -6.595341 c -3.183382,0 -12.549612,8.599575 -16.264754,12.278786 -2.3924294,2.341945 -8.337097,5.880055 -11.62847331,5.869641 l -4.93314369,0.01437 0.038725,-32.358306 c 4.0643283,-0.02864 6.791169,0 12.3396007,0 z"
         id="path938"
         sodipodi:nodetypes="cccccccccccc" />
    </g>
    <g
       id="g948"
       inkscape:label="color"
       transform="matrix(-1,0,0,1,67.663318,0)">
      <path
         style="display:inline;fill:#000000;fill-opacity:0;stroke:#848400;stroke-width:2.12;stroke-linecap:round;stroke-linejoin:round;stroke-miterlimit:4;stroke-dasharray:none;stroke-opacity:1"
         d="m 6.8067471,21.583388 c 0.818095,0 14.4267659,-6.205448 19.9520339,-12.0753493 1.070587,-2.2883717 1.20369,-2.7776486 1.20369,-8.6625439 l 4.210488,-6e-7 -6.834836,34.3470778 5.740301,1.201602 h -2.937358 c -3.321359,0 -13.093548,8.972306 -16.969716,12.810986 -2.4961246,2.443451 -8.6984519,6.134914 -12.1324863,6.124048 l -5.1469609,0.01499 0.040404,-33.760812 c 4.2404884,-0.02988 7.0855186,0 12.8744359,0 z"
         id="path870"
         sodipodi:nodetypes="ccccccccccccc" />
      <path
         style="display:inline;fill:#000000;fill-opacity:0;stroke:#ffffff;stroke-width:2.12;stroke-linecap:round;stroke-linejoin:round;stroke-miterlimit:4;stroke-dasharray:none;stroke-opacity:1"
         d="m 6.5070536,20.114866 c 0.818095,0 12.0443654,-6.205448 17.5696334,-12.0753495 1.070587,-2.2883717 1.20369,-2.7776486 1.20369,-8.66254388 l 6.950784,-6.8e-7 -3.193363,34.15710006 3.296709,1.39158 h -4.493134 c -3.321359,0 -13.093549,8.972306 -16.969717,12.810986 -2.4961241,2.443451 -8.6984514,6.134914 -12.1324858,6.124048 l -5.1469609,0.01499 0.040404,-33.760812 c 4.2404884,-0.02988 7.08551859,0 12.8744359,0 z"
         id="path944"
         sodipodi:nodetypes="ccccccccccccc" />
      <path
         style="display:inline;fill:#e70000;fill-opacity:1;stroke:#000000;stroke-width:2.03193;stroke-linecap:round;stroke-linejoin:round;stroke-miterlimit:4;stroke-dasharray:none;stroke-opacity:0"
         d="m 6.8067454,20.385368 c 0.7841094,0 12.5302786,-6.676563 17.8260136,-12.3026147 0.996781,-1.7264754 0.643337,-4.5191815 0.643337,-15.4788255 l 8.591733,3.9973732 -0.0177,37.979577 h -6.595341 c -3.183382,0 -12.549612,8.599575 -16.264754,12.278786 -2.3924294,2.341945 -8.337097,5.880055 -11.62847331,5.869641 l -4.93314369,0.01437 0.038725,-32.358306 c 4.0643283,-0.02864 6.791169,0 12.3396007,0 z"
         id="path946"
         sodipodi:nodetypes="cccccccccccc" />
    </g>
    <g
       id="g963"
       inkscape:label="eye">
      <path
         id="path945"
         style="display:inline;fill:#adb563;fill-opacity:1;fill-rule:evenodd;stroke:#848400;stroke-width:1.4;stroke-miterlimit:4;stroke-dasharray:none;stroke-opacity:1"
         d="m 30.608691,27.804624 c -0.402196,3.921643 -4.655922,3.187707 -9.657208,3.223438 -5.436305,0.03884 -6.316353,-4.861582 -4.693755,-9.006655 1.570026,-4.010775 7.285688,-5.309459 10.511407,-2.309462 2.793552,2.598073 4.306466,3.54004 3.839556,8.092679 z"
         sodipodi:nodetypes="sssss" />
      <path
         id="path948"
         style="display:inline;fill:none;fill-opacity:1;fill-rule:evenodd;stroke:#848400;stroke-width:1.2;stroke-miterlimit:4;stroke-dasharray:none;stroke-opacity:1"
         d="m 20.955966,30.892435 c -4.813872,-0.267153 -5.175256,-4.38534 -3.690801,-8.425553 1.441201,-3.922489 5.679483,-4.672429 9.031712,-2.514365 3.166795,2.038688 4.81454,3.204585 4.311814,7.852107"
         sodipodi:nodetypes="cssc" />
      <ellipse
         style="fill:#000000;fill-rule:evenodd;stroke-width:0.178866"
         id="path956"
         cx="23.274246"
         cy="29.150875"
         rx="2.1216562"
         ry="1.6138922" />
      <path
         id="path952"
         style="display:inline;fill:none;fill-rule:evenodd;stroke:#ffffff;stroke-width:1.4;stroke-miterlimit:4;stroke-dasharray:none;stroke-opacity:1"
         d="m 30.608691,27.804624 c -0.402464,3.921616 -4.655922,3.187707 -9.657208,3.223438 -5.436305,0.03884 -6.316353,-4.861582 -4.693755,-9.006655 1.570026,-4.010775 7.014776,-5.146803 10.511407,-2.467471 3.220211,2.467522 4.30679,3.69795 3.839556,8.250688 z"
         sodipodi:nodetypes="sssss" />
      <path
         style="fill:none;stroke:#000000;stroke-width:1.965;stroke-linecap:round;stroke-linejoin:miter;stroke-miterlimit:4;stroke-dasharray:none;stroke-opacity:1"
         d="m 20.021077,24.416202 h 6.514392"
         id="path954"
         sodipodi:nodetypes="cc" />
    </g>
    <g
       id="g981"
       inkscape:label="eye"
       transform="matrix(-1,0,0,1,67.743737,0)">
      <path
         id="path971"
         style="display:inline;fill:#adb563;fill-opacity:1;fill-rule:evenodd;stroke:#848400;stroke-width:1.4;stroke-miterlimit:4;stroke-dasharray:none;stroke-opacity:1"
         d="m 30.608691,27.804624 c -0.402196,3.921643 -4.655922,3.187707 -9.657208,3.223438 -5.436305,0.03884 -6.316353,-4.861582 -4.693755,-9.006655 1.570026,-4.010775 7.285688,-5.309459 10.511407,-2.309462 2.793552,2.598073 4.306466,3.54004 3.839556,8.092679 z"
         sodipodi:nodetypes="sssss" />
      <ellipse
         style="fill:#000000;fill-rule:evenodd;stroke-width:0.178866"
         id="ellipse975"
         cx="23.274246"
         cy="29.150875"
         rx="2.1216562"
         ry="1.6138922" />
      <path
         id="path977"
         style="display:inline;fill:none;fill-opacity:1;fill-rule:evenodd;stroke:#848400;stroke-width:1.2;stroke-miterlimit:4;stroke-dasharray:none;stroke-opacity:1"
         d="m 29.842106,27.703326 c -0.402464,3.921616 -4.477821,3.212635 -8.890623,3.324736 -5.484587,0.139329 -6.322663,-4.815504 -4.693755,-9.006655 1.560281,-4.014576 6.397719,-4.460819 9.89435,-1.781487 3.220211,2.467522 4.157262,2.910668 3.690028,7.463406 z"
         sodipodi:nodetypes="sssss" />
      <path
         style="fill:none;stroke:#000000;stroke-width:1.965;stroke-linecap:round;stroke-linejoin:miter;stroke-miterlimit:4;stroke-dasharray:none;stroke-opacity:1"
         d="m 20.021077,24.416202 h 6.514392"
         id="path979"
         sodipodi:nodetypes="cc" />
      <path
         id="path983"
         style="display:inline;fill:none;fill-rule:evenodd;stroke:#ffffff;stroke-width:1.4;stroke-miterlimit:4;stroke-dasharray:none;stroke-opacity:1"
         d="m 30.608691,27.804624 c -0.402464,3.921616 -4.655922,3.187707 -9.657208,3.223438 -5.436305,0.03884 -6.316353,-4.861582 -4.693755,-9.006655 1.570026,-4.010775 7.014776,-5.146803 10.511407,-2.467471 3.220211,2.467522 4.30679,3.69795 3.839556,8.250688 z"
         sodipodi:nodetypes="sssss"
         sodipodi:insensitive="true" />
    </g>
    <g
       id="g1075"
       transform="matrix(1,0,0,-1,-0.008443,89.508498)">
      <path
         style="fill:none;stroke:#000000;stroke-width:1.965;stroke-linecap:round;stroke-linejoin:round;stroke-miterlimit:4;stroke-dasharray:none;stroke-opacity:1"
         d="m 28.494937,46.082349 c 4.947946,3.18826 8.267244,2.635094 10.718022,0.08671"
         id="path1065"
         sodipodi:nodetypes="cc" />
    </g>
  </g>
</svg>
