<?xml version="1.0" encoding="UTF-8" standalone="no"?>
<svg
   xmlns:dc="http://purl.org/dc/elements/1.1/"
   xmlns:cc="http://creativecommons.org/ns#"
   xmlns:rdf="http://www.w3.org/1999/02/22-rdf-syntax-ns#"
   xmlns:svg="http://www.w3.org/2000/svg"
   xmlns="http://www.w3.org/2000/svg"
   xmlns:sodipodi="http://sodipodi.sourceforge.net/DTD/sodipodi-0.dtd"
   xmlns:inkscape="http://www.inkscape.org/namespaces/inkscape"
   width="256"
   height="256"
   viewBox="0 0 67.733332 67.733336"
   version="1.1"
   id="svg8"
   inkscape:version="1.0.1 (3bc2e81, 2020-09-07)"
   sodipodi:docname="tex1_32x32_adb6ffa270538f2f_b1acce71fc0c8bbe_8.svg"
   
   inkscape:export-xdpi="96"
   inkscape:export-ydpi="96">
  <defs
     id="defs2">
    <clipPath
       clipPathUnits="userSpaceOnUse"
       id="clipPath1056">
      <rect
         style="fill:#ffffff;fill-opacity:1;stroke:none;stroke-width:2.08518;stroke-linecap:round;stroke-opacity:1;paint-order:stroke fill markers"
         id="rect1058"
         width="67.729233"
         height="67.729164"
         x="-67.729233"
         y="0.0041749999"
         transform="scale(-1,1)" />
    </clipPath>
    <clipPath
       clipPathUnits="userSpaceOnUse"
       id="clipPath1642">
      <rect
         style="fill:#e70000;fill-opacity:1;stroke:#000000;stroke-width:2.08518;stroke-linecap:round;stroke-opacity:0;paint-order:stroke fill markers"
         id="rect1644"
         width="67.729233"
         height="67.729233"
         x="0"
         y="0.0041749999" />
    </clipPath>
  </defs>
  <sodipodi:namedview
     id="base"
     pagecolor="#ffffff"
     bordercolor="#000000"
     borderopacity="1"
     inkscape:pageopacity="0.0"
     inkscape:pageshadow="2"
     inkscape:zoom="5.6568543"
     inkscape:cx="118.02213"
     inkscape:cy="39.961524"
     inkscape:document-units="mm"
     inkscape:current-layer="g901"
     inkscape:document-rotation="0"
     showgrid="false"
     units="px"
     inkscape:pagecheckerboard="true"
     inkscape:showpageshadow="false"
     showguides="true"
     inkscape:guide-bbox="true"
     inkscape:window-width="1322"
     inkscape:window-height="764"
     inkscape:window-x="2327"
     inkscape:window-y="915"
     inkscape:window-maximized="0">
    <sodipodi:guide
       position="0.00080889514,67.694705"
       orientation="1,0"
       id="guide931" />
    <sodipodi:guide
       position="0.13849284,67.733336"
       orientation="0,-1"
       id="guide933" />
  </sodipodi:namedview>
  <metadata
     id="metadata5">
    <rdf:RDF>
      <cc:Work
         rdf:about="">
        <dc:format>image/svg+xml</dc:format>
        <dc:type
           rdf:resource="http://purl.org/dc/dcmitype/StillImage" />
        <dc:title />
      </cc:Work>
    </rdf:RDF>
  </metadata>
  <g
     id="g920"
     transform="matrix(-1,0,0,1,67.730042,-0.004177)"
     style="display:inline"
     clip-path="url(#clipPath1056)"
     inkscape:label="back">
    <rect
       style="display:inline;fill:#ffffff;fill-opacity:1;stroke:none;stroke-width:2.65711;stroke-linecap:round;stroke-opacity:1;paint-order:stroke fill markers"
       id="rect938"
       width="27.493742"
       height="75.12941"
       x="40.235489"
       y="-7.3960724" />
    <path
       style="display:inline;fill:#adb563;fill-opacity:1;stroke-width:2.08518;stroke-linecap:round;paint-order:stroke fill markers"
       id="rect873"
       width="67.729233"
       height="67.729233"
       x="0"
       y="0.0041749999"
       inkscape:label="skin"
       sodipodi:type="rect"
       d="M 0,0.004175 H 67.729233 V 67.733408 H 0 Z"
       sodipodi:insensitive="true" />
    <g
       id="g1047"
       inkscape:label="color"
       transform="translate(0.07885063)">
      <path
         style="display:inline;fill:#848400;fill-opacity:1;stroke:#848400;stroke-width:2.12;stroke-linecap:round;stroke-linejoin:round;stroke-miterlimit:4;stroke-dasharray:none;stroke-opacity:1"
         d="M 6.5070536,20.114866 C 7.9685765,21.44003 33.311389,36.040718 28.543132,8.9709061 29.613719,6.6825344 27.662777,5.2618679 27.662777,-0.62302738 L 36.396745,20.202909 c -0.373639,0.918095 -5.80334,-0.46532 -5.935719,1.31782 -0.51802,6.97772 0.326831,18.857008 -1.25592,22.164183 -1.987222,4.15232 -16.535217,13.60566 -30.3614994,11.432326 -1.674589,-0.263226 -5.2513973,-1.241582 -5.2513973,-1.241582 l 0.040404,-33.760812 c 4.2404884,-0.02988 7.08551859,0 12.8744359,0 z"
         id="path1041"
         sodipodi:nodetypes="ccccssscccc"
         inkscape:original-d="M 6.5070536,20.114866 C 7.9685765,21.44003 33.311389,36.040718 28.543132,8.9709061 29.613719,6.6825344 27.662777,5.2618679 27.662777,-0.62302738 L 36.396745,20.202909 c -0.373639,0.918095 -5.80334,-0.46532 -5.935719,1.31782 -0.51802,6.97772 0.326831,18.857008 -1.25592,22.164183 -1.987222,4.15232 -16.535217,13.60566 -30.3614994,11.432326 -1.674589,-0.263226 -5.2513973,-1.241582 -5.2513973,-1.241582 l 0.040404,-33.760812 c 4.2404884,-0.02988 7.08551859,0 12.8744359,0 z" />
      <path
         style="display:inline;fill:#000000;fill-opacity:0;stroke:#ffffff;stroke-width:2.12;stroke-linecap:round;stroke-linejoin:round;stroke-miterlimit:4;stroke-dasharray:none;stroke-opacity:1"
         d="M 6.5070536,20.114866 C 25.342344,19.940313 25.893552,15.004128 27.149891,8.2831812 27.685558,5.4175596 27.426697,-6.5110889 27.41396,-0.62620745 l 0.220394,1.84801985 1.444622,15.5057856 c -0.803376,2.998238 -0.513565,12.86549 -0.622097,20.025213 -0.04042,2.666671 -0.207866,4.884872 -1.036177,6.058947 -2.839213,4.024394 -14.924743,12.951971 -28.7510252,10.778637 -1.674589,-0.263226 -5.0774455,0.285261 -5.0774455,0.285261 l 0.040404,-33.760812 c 4.2404884,-0.02988 7.08551859,0 12.8744359,0 z"
         id="path1053"
         sodipodi:nodetypes="cssccssscccc"
         inkscape:original-d="M 6.5070536,20.114866 C 25.342344,19.940313 25.893552,15.004128 27.149891,8.2831812 27.685558,5.4175596 27.426697,-6.5110889 27.41396,-0.62620745 l 0.220394,1.84801985 1.444622,15.5057856 c -0.803376,2.998238 -0.513565,12.86549 -0.622097,20.025213 -0.04042,2.666671 -0.207866,4.884872 -1.036177,6.058947 -2.839213,4.024394 -14.924743,12.951971 -28.7510252,10.778637 -1.674589,-0.263226 -5.0774455,0.285261 -5.0774455,0.285261 l 0.040404,-33.760812 c 4.2404884,-0.02988 7.08551859,0 12.8744359,0 z" />
      <path
         style="display:inline;fill:#0031f7;fill-opacity:1;stroke:#000000;stroke-width:2.12;stroke-linecap:round;stroke-linejoin:round;stroke-miterlimit:4;stroke-dasharray:none;stroke-opacity:0"
         d="M 27.124926,8.3140261 C 27.411479,5.412886 27.34695,5.8337678 27.34695,-0.05112744 l 8.586619,-1.27657526 c -0.03227,-0.00472 -0.03196,13.0506417 -0.03196,18.9582227 0,1.228829 -7.753063,0.250807 -7.933135,1.498078 -0.724172,5.015986 -0.1926,10.279384 -0.277682,15.043734 -0.02385,1.335676 -0.03289,2.63213 -0.03289,3.872914 0,6.08601 -6.48494,10.88461 -13.540326,13.133632 -5.9703678,1.903153 -12.361818,1.753836 -15.4479012,1.352632 -1.674589,-0.263226 -5.0774455,0.285261 -5.0774455,0.285261 L -11.64826,20.052765 c 4.2404888,-0.02988 11.32066352,0.547836 17.0029557,0.260969 6.0043033,-0.303124 12.4155043,0.574489 17.0693033,-2.40756 2.665769,-1.708164 4.280293,-5.431735 4.700927,-9.5921479 z"
         id="path1045"
         sodipodi:nodetypes="cccssssscccssc"
         inkscape:original-d="M 27.124926,8.3140261 C 27.411479,5.412886 27.34695,5.8337678 27.34695,-0.05112744 l 8.586619,-1.27657526 c -0.03227,-0.00472 -0.03196,13.0506417 -0.03196,18.9582227 0,1.228829 -7.753063,0.250807 -7.933135,1.498078 -0.724172,5.015986 -0.1926,10.279384 -0.277682,15.043734 -0.02385,1.335676 -0.03289,2.63213 -0.03289,3.872914 0,6.08601 -6.48494,10.88461 -13.540326,13.133632 -5.9703678,1.903153 -12.361818,1.753836 -15.4479012,1.352632 -1.674589,-0.263226 -5.0774455,0.285261 -5.0774455,0.285261 L -11.64826,20.052765 c 4.2404888,-0.02988 11.32066352,0.547836 17.0029557,0.260969 6.0043033,-0.303124 12.4155043,0.574489 17.0693033,-2.40756 2.665769,-1.708164 4.280293,-5.431735 4.700927,-9.5921479 z" />
    </g>
    <g
       id="g901"
       inkscape:label="color"
       transform="matrix(-1,0,0,1,67.663318,0)">
      <path
         style="display:inline;fill:#848400;fill-opacity:1;stroke:#848400;stroke-width:2.12;stroke-linecap:round;stroke-linejoin:round;stroke-miterlimit:4;stroke-dasharray:none;stroke-opacity:1"
         d="M 6.5070536,20.114866 C 7.9685765,21.44003 33.311389,36.040718 28.543132,8.9709061 29.613719,6.6825344 27.662777,5.2618679 27.662777,-0.62302738 L 31.188426,17.356448 c -0.397106,0.975756 -0.622228,2.567064 -0.751305,4.503985 -0.467621,7.017126 0.325334,18.570383 -1.232015,21.824479 -1.987222,4.15232 -16.535217,13.60566 -30.3614994,11.432326 -1.674589,-0.263226 -5.2513973,-1.241582 -5.2513973,-1.241582 l 0.040404,-33.760812 c 4.2404884,-0.02988 7.08551859,0 12.8744359,0 z"
         id="path1060"
         sodipodi:nodetypes="ccccssscccc"
         inkscape:original-d="M 6.5070536,20.114866 C 7.9685765,21.44003 33.311389,36.040718 28.543132,8.9709061 29.613719,6.6825344 27.662777,5.2618679 27.662777,-0.62302738 L 31.188426,17.356448 c -0.397106,0.975756 -0.622228,2.567064 -0.751305,4.503985 -0.467621,7.017126 0.325334,18.570383 -1.232015,21.824479 -1.987222,4.15232 -16.535217,13.60566 -30.3614994,11.432326 -1.674589,-0.263226 -5.2513973,-1.241582 -5.2513973,-1.241582 l 0.040404,-33.760812 c 4.2404884,-0.02988 7.08551859,0 12.8744359,0 z" />
      <path
         style="display:inline;fill:#000000;fill-opacity:0;stroke:#ffffff;stroke-width:2.12;stroke-linecap:round;stroke-linejoin:round;stroke-miterlimit:4;stroke-dasharray:none;stroke-opacity:1"
         d="M 6.5070536,20.114866 C 26.386793,20.879658 25.251778,15.541888 25.963962,8.3315456 c 0.286553,-2.9011401 0.169301,-3.0696777 0.169301,-8.95457298 0,-2.98029782 -0.03146,1.23262425 -0.004,1.84801988 0.231337,5.1840149 2.629058,15.5026055 2.629058,15.5026055 -0.803376,2.998238 -0.513565,12.86549 -0.622097,20.025213 -0.04042,2.666671 0.112789,4.884872 -0.715522,6.058947 -2.839213,4.024394 -14.924743,12.951971 -28.7510252,10.778637 -1.674589,-0.263226 -5.0774455,0.285261 -5.0774455,0.285261 l 0.040404,-33.760812 c 4.2404884,-0.02988 7.08551859,0 12.8744359,0 z"
         id="path897"
         sodipodi:nodetypes="cssscssscccc"
         inkscape:original-d="M 6.5070536,20.114866 C 26.386793,20.879658 25.251778,15.541888 25.963962,8.3315456 c 0.286553,-2.9011401 0.169301,-3.0696777 0.169301,-8.95457298 0,-2.98029782 -0.03146,1.23262425 -0.004,1.84801988 0.231337,5.1840149 2.629058,15.5026055 2.629058,15.5026055 -0.803376,2.998238 -0.513565,12.86549 -0.622097,20.025213 -0.04042,2.666671 0.112789,4.884872 -0.715522,6.058947 -2.839213,4.024394 -14.924743,12.951971 -28.7510252,10.778637 -1.674589,-0.263226 -5.0774455,0.285261 -5.0774455,0.285261 l 0.040404,-33.760812 c 4.2404884,-0.02988 7.08551859,0 12.8744359,0 z" />
      <path
         style="display:inline;fill:#e70000;fill-opacity:1;stroke:#000000;stroke-width:2.12;stroke-linecap:round;stroke-linejoin:round;stroke-miterlimit:4;stroke-dasharray:none;stroke-opacity:0"
         d="m 26.252441,8.3140261 c 0.268235,-2.6784318 0.145848,-2.5252033 0.125513,-7.1188592 -0.0017,-0.38128383 -0.0027,-0.79527072 -0.0027,-1.24629434 l 7.581853,-1.27657526 c -0.03227,-0.00472 -0.03196,13.0506417 -0.03196,18.9582227 0,1.228829 -4.971495,0.250807 -5.151567,1.498078 -0.724172,5.015986 -0.997733,10.279384 -1.082811,15.043734 -0.02385,1.335676 -0.03289,2.63213 -0.03289,3.872914 0,6.08601 -6.48494,10.88461 -13.540326,13.133632 -5.9703678,1.903153 -12.361818,1.753836 -15.4479012,1.352632 -1.674589,-0.263226 -5.0774455,0.285261 -5.0774455,0.285261 L -11.64826,20.052765 c 4.2404888,-0.02988 11.32066352,0.547836 17.0029557,0.260969 6.0043033,-0.303124 12.6468223,0.574489 17.3006213,-2.40756 0.111283,-0.07131 0.219557,-0.146126 0.324911,-0.224342 2.418394,-1.795433 2.872919,-5.380689 3.272213,-9.3678059 z"
         id="path1066"
         sodipodi:nodetypes="ssccssssscccssss"
         inkscape:original-d="m 26.252441,8.3140261 c 0.268235,-2.6784318 0.145848,-2.5252033 0.125513,-7.1188592 -0.0017,-0.38128383 -0.0027,-0.79527072 -0.0027,-1.24629434 l 7.581853,-1.27657526 c -0.03227,-0.00472 -0.03196,13.0506417 -0.03196,18.9582227 0,1.228829 -4.971495,0.250807 -5.151567,1.498078 -0.724172,5.015986 -0.997733,10.279384 -1.082811,15.043734 -0.02385,1.335676 -0.03289,2.63213 -0.03289,3.872914 0,6.08601 -6.48494,10.88461 -13.540326,13.133632 -5.9703678,1.903153 -12.361818,1.753836 -15.4479012,1.352632 -1.674589,-0.263226 -5.0774455,0.285261 -5.0774455,0.285261 L -11.64826,20.052765 c 4.2404888,-0.02988 11.32066352,0.547836 17.0029557,0.260969 6.0043033,-0.303124 12.6468223,0.574489 17.3006213,-2.40756 0.111283,-0.07131 0.219557,-0.146126 0.324911,-0.224342 2.418394,-1.795433 2.872919,-5.380689 3.272213,-9.3678059 z" />
    </g>
    <path
       id="rect1731"
       style="fill:#000000;fill-opacity:0;stroke:#ffffff;stroke-width:2.5;stroke-linecap:round;stroke-linejoin:round;stroke-miterlimit:4;stroke-dasharray:none;stroke-opacity:1;paint-order:stroke fill markers"
       transform="scale(-1,1)"
       d="M -39.230156,40.83488 V 19.836041 c 0,0 3.43347,-1.962459 5.329891,-1.991929 2.069481,-0.03216 5.881012,1.991929 5.881012,1.991929 V 41.10175"
       sodipodi:nodetypes="ccacc" />
    <g
       id="g1717"
       style="display:inline">
      <path
         id="path1708"
         style="display:inline;fill:#ffffff;fill-rule:evenodd;stroke-width:0.307609"
         d="m 39.451952,34.984832 c 0.0066,0.818702 0.15027,2.790916 0.667482,2.363749 0.01878,-0.01551 0.03755,-0.03093 0.0563,-0.04628 1.102873,-0.902423 1.603148,-1.523136 1.619486,-2.351806 0.01666,-0.845267 -0.520212,-1.499983 -1.675782,-2.483163 -0.465656,-0.396189 -0.674446,1.649364 -0.667482,2.517496 z"
         sodipodi:nodetypes="assssaa" />
      <path
         id="path1056"
         style="display:inline;fill:#ffffff;fill-rule:evenodd;stroke-width:0.307609"
         d="m 28.473065,34.984832 c -0.0066,0.818702 -0.15027,2.790916 -0.667482,2.363749 -0.01878,-0.01551 -0.03755,-0.03093 -0.0563,-0.04628 -1.102873,-0.902423 -1.603148,-1.523136 -1.619486,-2.351806 -0.01666,-0.845267 0.520212,-1.499983 1.675782,-2.483163 0.465656,-0.396189 0.674446,1.649364 0.667482,2.517496 z"
         sodipodi:nodetypes="assssaa" />
      <path
         style="fill:none;stroke:#000000;stroke-width:2.5;stroke-linecap:round;stroke-linejoin:miter;stroke-miterlimit:4;stroke-dasharray:none;stroke-opacity:1"
         d="M 39.451953,34.984832 H 28.473065"
         id="path1713" />
    </g>
    <g
       id="g1723"
       transform="translate(0,-6.4)">
      <path
         id="path1719"
         style="display:inline;fill:#ffffff;fill-rule:evenodd;stroke-width:0.307609"
         d="m 39.451952,34.984832 c -0.409697,0.409697 -0.380603,2.293866 0.443762,2.574809 0.119993,0.04089 0.26127,-0.24199 0.28002,-0.25734 1.102873,-0.902423 1.603148,-1.523136 1.619486,-2.351806 0.01666,-0.845267 -0.520212,-1.499983 -1.675782,-2.483163 -0.465656,-0.396189 -0.674446,1.649364 -0.667482,2.517496 z"
         sodipodi:nodetypes="sasssas" />
      <path
         id="path1058"
         style="display:inline;fill:#ffffff;fill-rule:evenodd;stroke-width:0.307609"
         d="m 28.473065,34.984832 c 0.409697,0.409697 0.380603,2.293866 -0.443762,2.574809 -0.119993,0.04089 -0.26127,-0.24199 -0.28002,-0.25734 -1.102873,-0.902423 -1.603148,-1.523136 -1.619486,-2.351806 -0.01666,-0.845267 0.520212,-1.499983 1.675782,-2.483163 0.465656,-0.396189 0.674446,1.649364 0.667482,2.517496 z"
         sodipodi:nodetypes="sasssas" />
      <path
         style="fill:none;stroke:#000000;stroke-width:2.5;stroke-linecap:round;stroke-linejoin:miter;stroke-miterlimit:4;stroke-dasharray:none;stroke-opacity:1"
         d="M 39.451953,34.984832 H 28.473065"
         id="path1721" />
    </g>
    <g
       id="g1729"
       transform="translate(0,-12.8)">
      <path
         id="path1725"
         style="display:inline;fill:#ffffff;fill-rule:evenodd;stroke-width:0.307609"
         d="m 39.451952,34.984832 c 0.0066,0.818702 0.15027,2.790916 0.667482,2.363749 0.01878,-0.01551 0.03755,-0.03093 0.0563,-0.04628 1.102873,-0.902423 1.603148,-1.523136 1.619486,-2.351806 0.01666,-0.845267 -0.520212,-1.499983 -1.675782,-2.483163 -0.465656,-0.396189 -0.674446,1.649364 -0.667482,2.517496 z"
         sodipodi:nodetypes="assssaa" />
      <path
         id="path1061"
         style="display:inline;fill:#ffffff;fill-rule:evenodd;stroke-width:0.307609"
         d="m 28.473065,34.984832 c -0.0066,0.818702 -0.15027,2.790916 -0.667482,2.363749 -0.01878,-0.01551 -0.03755,-0.03093 -0.0563,-0.04628 -1.102873,-0.902423 -1.603148,-1.523136 -1.619486,-2.351806 -0.01666,-0.845267 0.520212,-1.499983 1.675782,-2.483163 0.465656,-0.396189 0.674446,1.649364 0.667482,2.517496 z"
         sodipodi:nodetypes="assssaa" />
      <path
         style="fill:none;stroke:#000000;stroke-width:2.5;stroke-linecap:round;stroke-linejoin:miter;stroke-miterlimit:4;stroke-dasharray:none;stroke-opacity:1"
         d="M 39.451953,34.984832 H 28.473065"
         id="path1727" />
    </g>
    <g
       id="g1738"
       style="display:inline"
       transform="translate(0,6.4)">
      <path
         id="path1734"
         style="display:inline;fill:#ffffff;fill-rule:evenodd;stroke-width:0.307609"
         d="m 39.451952,34.984832 c 0.0066,0.818702 0.15027,2.790916 0.667482,2.363749 0.01878,-0.01551 0.03755,-0.03093 0.0563,-0.04628 1.102873,-0.902423 1.603148,-1.523136 1.619486,-2.351806 0.01666,-0.845267 -0.520212,-1.499983 -1.675782,-2.483163 -0.465656,-0.396189 -0.674446,1.649364 -0.667482,2.517496 z"
         sodipodi:nodetypes="assssaa" />
      <path
         id="path1063"
         style="display:inline;fill:#ffffff;fill-rule:evenodd;stroke-width:0.307609"
         d="m 28.473065,34.984832 c -0.0066,0.818702 -0.15027,2.790916 -0.667482,2.363749 -0.01878,-0.01551 -0.03755,-0.03093 -0.0563,-0.04628 -1.102873,-0.902423 -1.603148,-1.523136 -1.619486,-2.351806 -0.01666,-0.845267 0.520212,-1.499983 1.675782,-2.483163 0.465656,-0.396189 0.674446,1.649364 0.667482,2.517496 z"
         sodipodi:nodetypes="assssaa" />
      <path
         style="fill:none;stroke:#000000;stroke-width:2.5;stroke-linecap:round;stroke-linejoin:miter;stroke-miterlimit:4;stroke-dasharray:none;stroke-opacity:1"
         d="M 39.451953,34.984832 H 28.473065"
         id="path1736" />
    </g>
  </g>
</svg>
